<svg aria-hidden="true" style="position: absolute; width: 0; height: 0; overflow: hidden;" version="1.1" xmlns="http://www.w3.org/2000/svg" xmlns:xlink="http://www.w3.org/1999/xlink">
<defs>
<symbol id="icon-facebook" viewBox="0 0 32 32">
<path d="M32 16c0-8.836-7.164-16-16-16s-16 7.164-16 16c0 7.987 5.851 14.605 13.5 15.805v-11.179h-4.063v-4.627h4.063v-3.525c0-4.009 2.389-6.224 6.044-6.224 1.749 0 3.581 0.312 3.581 0.312v3.937h-2.019c-1.988 0-2.608 1.233-2.608 2.5v3h4.437l-0.709 4.625h-3.728v11.18c7.651-1.2 13.501-7.819 13.501-15.805z"></path>
</symbol>
<symbol id="icon-insta" viewBox="0 0 32 32">
<path d="M16 2.88c4.275 0 4.781 0.020 6.463 0.095 1.563 0.069 2.407 0.332 2.968 0.551 0.721 0.27 1.335 0.676 1.838 1.192l0.001 0.001c0.561 0.563 0.907 1.093 1.193 1.837 0.219 0.563 0.48 1.413 0.549 2.969 0.076 1.687 0.093 2.193 0.093 6.463 0 4.275-0.017 4.781-0.093 6.461-0.068 1.563-0.331 2.407-0.549 2.969-0.288 0.744-0.637 1.281-1.193 1.837-0.503 0.518-1.117 0.925-1.805 1.182l-0.034 0.011c-0.561 0.22-1.412 0.481-2.968 0.551-1.688 0.075-2.193 0.093-6.463 0.093-4.275 0-4.781-0.019-6.463-0.093-1.563-0.069-2.407-0.331-2.968-0.551-0.721-0.27-1.335-0.676-1.838-1.192l-0.001-0.001c-0.518-0.503-0.924-1.117-1.182-1.803l-0.011-0.034c-0.219-0.563-0.48-1.413-0.549-2.969-0.076-1.687-0.093-2.193-0.093-6.461 0-4.276 0.017-4.781 0.093-6.463 0.068-1.563 0.331-2.407 0.549-2.969 0.288-0.744 0.637-1.28 1.193-1.837 0.563-0.563 1.093-0.907 1.839-1.193 0.561-0.219 1.412-0.481 2.968-0.551 1.681-0.075 2.187-0.093 6.463-0.093zM16 0c-4.344 0-4.888 0.019-6.593 0.093-1.7 0.076-2.869 0.351-3.881 0.744-1.111 0.424-2.058 1.054-2.836 1.849l-0.001 0.001c-0.795 0.778-1.425 1.723-1.832 2.777l-0.018 0.054c-0.393 1.019-0.668 2.181-0.744 3.881-0.075 1.712-0.093 2.256-0.093 6.6s0.019 4.888 0.093 6.593c0.076 1.7 0.351 2.869 0.744 3.881 0.413 1.056 0.956 1.951 1.851 2.837 0.778 0.793 1.723 1.42 2.777 1.826l0.054 0.018c1.019 0.395 2.181 0.669 3.881 0.744 1.707 0.075 2.251 0.093 6.593 0.093 4.344 0 4.888-0.019 6.595-0.093 1.7-0.075 2.868-0.349 3.88-0.744 1.108-0.423 2.053-1.051 2.831-1.843l0.001-0.001c0.793-0.778 1.42-1.723 1.826-2.777l0.018-0.054c0.393-1.019 0.668-2.181 0.744-3.881 0.075-1.707 0.093-2.251 0.093-6.593 0-4.344-0.019-4.888-0.093-6.595-0.076-1.7-0.351-2.868-0.744-3.88-0.408-1.116-1.033-2.067-1.83-2.842l-0.002-0.002c-0.778-0.793-1.723-1.42-2.777-1.826l-0.054-0.018c-1.019-0.393-2.181-0.671-3.881-0.744-1.712-0.080-2.256-0.1-6.6-0.1z"></path>
<path d="M16 7.781c-4.538 0.002-8.217 3.68-8.219 8.219v0c0.002 4.538 3.68 8.217 8.219 8.219h0c4.538-0.002 8.217-3.68 8.219-8.219v-0c-0.002-4.538-3.68-8.217-8.219-8.219h-0zM16 21.331c-2.944-0-5.331-2.387-5.331-5.332s2.387-5.332 5.332-5.332c0 0 0 0 0.001 0h-0c2.945 0 5.331 2.387 5.331 5.332s-2.387 5.332-5.332 5.332c-0 0-0 0-0.001 0h0zM26.463 7.456c0 0.015 0.001 0.033 0.001 0.051 0 1.060-0.86 1.92-1.92 1.92s-1.92-0.86-1.92-1.92c0-0.018 0-0.036 0.001-0.053l-0 0.003c0.028-1.038 0.877-1.869 1.919-1.869s1.891 0.831 1.919 1.867l0 0.003z"></path>
</symbol>
<symbol id="icon-arrow-l" viewBox="0 0 33 32">
<path d="M22.507 8.14l-8.038 7.86 8.039 7.86-1.608 3.144-11.253-11.004 11.253-11.004 1.608 3.144z"></path>
</symbol>
<symbol id="icon-arrow-r" viewBox="0 0 33 32">
<path  d="M10.055 8.14l8.038 7.86-8.038 7.86 1.608 3.144 11.253-11.004-11.253-11.004-1.608 3.144z"></path>
</symbol>
<symbol id="icon-clock" viewBox="0 0 33 32">
<path d="M17.636 5.969h-2v11.132l7.226 3.434 0.859-1.806-6.084-2.892v-9.868z"></path>
<path d="M16.667 1c-8.284 0-15 6.716-15 15s6.716 15 15 15c8.284 0 15-6.716 15-15s-6.716-15-15-15zM16.667 29c-7.18 0-13-5.82-13-13s5.82-13 13-13c7.18 0 13 5.82 13 13s-5.82 13-13 13z"></path>
</symbol>
<symbol id="icon-location" viewBox="0 0 32 32">
<path d="M16 2.571c2.955 0 5.789 1.174 7.879 3.264s3.264 4.924 3.264 7.879c0 4.709-3.309 9.84-9.84 15.449-0.363 0.312-0.826 0.483-1.305 0.483s-0.942-0.173-1.304-0.485l-0.432-0.375c-6.242-5.463-9.405-10.469-9.405-15.072 0-2.955 1.174-5.789 3.264-7.879s4.924-3.264 7.879-3.264zM16 4.286c-2.501 0-4.899 0.993-6.667 2.762s-2.762 4.166-2.762 6.667c0 4.002 2.912 8.614 8.816 13.779l0.426 0.369c0.052 0.045 0.118 0.069 0.186 0.069s0.134-0.024 0.186-0.069c6.19-5.317 9.242-10.051 9.242-14.149 0-1.238-0.244-2.464-0.718-3.608s-1.168-2.183-2.044-3.059c-0.875-0.876-1.915-1.57-3.059-2.044s-2.37-0.718-3.608-0.718zM16 9.428c1.137 0 2.227 0.452 3.030 1.255s1.255 1.894 1.255 3.030c0 1.137-0.452 2.227-1.255 3.031s-1.894 1.255-3.030 1.255c-1.137 0-2.227-0.452-3.030-1.255s-1.255-1.894-1.255-3.031c0-1.137 0.452-2.227 1.255-3.030s1.894-1.255 3.030-1.255zM16 11.143c-0.682 0-1.336 0.271-1.818 0.753s-0.753 1.136-0.753 1.818 0.271 1.336 0.753 1.818c0.482 0.482 1.136 0.753 1.818 0.753s1.336-0.271 1.818-0.753c0.482-0.482 0.753-1.136 0.753-1.818s-0.271-1.336-0.753-1.818c-0.482-0.482-1.136-0.753-1.818-0.753z"></path>
</symbol><symbol id="icon-mail" viewBox="0 0 32 32">
<path d="M25.913 5.42h-19.827c-0.884 0-1.732 0.351-2.357 0.976s-0.976 1.473-0.976 2.357v14.493c0 0.884 0.351 1.732 0.976 2.357s1.473 0.976 2.357 0.976h19.827c0.884 0 1.732-0.351 2.357-0.976s0.976-1.473 0.976-2.357v-14.493c0-0.884-0.351-1.732-0.976-2.357s-1.473-0.976-2.357-0.976zM6.087 6.753h19.827c0.505-0.001 0.991 0.189 1.36 0.534s0.593 0.816 0.627 1.32c-3.293 1.76-6.6 3.507-9.907 5.267-0.447 0.28-0.921 0.517-1.413 0.707-0.387 0.076-0.785 0.069-1.169-0.020s-0.744-0.26-1.057-0.5c-1.893-1-3.787-2.013-5.667-3.013-1.52-0.8-3.067-1.613-4.587-2.427 0.031-0.506 0.254-0.981 0.623-1.327s0.857-0.54 1.364-0.539zM27.913 23.247c0 0.531-0.211 1.039-0.586 1.414s-0.884 0.586-1.414 0.586h-19.827c-0.53 0-1.039-0.211-1.414-0.586s-0.586-0.884-0.586-1.414v-13.113c3.147 1.653 6.28 3.333 9.427 5 0.562 0.345 1.167 0.614 1.8 0.8 0.926 0.151 1.875-0.044 2.667-0.547 1.933-1.013 3.853-2.040 5.787-3.053 1.387-0.747 2.76-1.467 4.147-2.2v13.113z"></path>
</symbol><symbol id="icon-tel" viewBox="0 0 32 32">
<path d="M27.699 20.038l-5.905-2.646c-0.267-0.115-0.559-0.161-0.849-0.134s-0.568 0.125-0.811 0.287c-0.025 0.016-0.048 0.033-0.070 0.052l-3.086 2.625c-0.032 0.017-0.068 0.027-0.104 0.029s-0.073-0.006-0.106-0.021c-1.984-0.957-4.039-3-5-4.956-0.016-0.033-0.024-0.069-0.024-0.105s0.008-0.072 0.024-0.105l2.634-3.125c0.019-0.023 0.037-0.047 0.053-0.072 0.159-0.243 0.255-0.522 0.28-0.812s-0.024-0.581-0.14-0.847l-2.627-5.895c-0.149-0.348-0.407-0.638-0.735-0.827s-0.709-0.266-1.085-0.22c-1.633 0.215-3.133 1.017-4.218 2.257s-1.682 2.832-1.678 4.48c0 9.788 7.963 17.75 17.75 17.75 1.647 0.003 3.24-0.594 4.479-1.679s2.042-2.584 2.257-4.218c0.046-0.374-0.031-0.753-0.218-1.080s-0.474-0.585-0.82-0.736zM22 26.25c-8.96 0-16.25-7.29-16.25-16.25-0.004-1.283 0.459-2.523 1.302-3.489s2.010-1.592 3.281-1.761h0.029c0.050 0.001 0.099 0.017 0.14 0.046s0.072 0.070 0.090 0.117l2.637 5.889c0.015 0.033 0.023 0.068 0.023 0.104s-0.008 0.072-0.023 0.104l-2.639 3.133c-0.020 0.022-0.038 0.046-0.054 0.071-0.165 0.252-0.262 0.543-0.282 0.843s0.038 0.601 0.169 0.873c1.109 2.27 3.396 4.54 5.691 5.649 0.273 0.13 0.575 0.186 0.877 0.164s0.593-0.122 0.844-0.289c0.024-0.016 0.047-0.034 0.070-0.053l3.085-2.625c0.031-0.016 0.064-0.026 0.099-0.028s0.069 0.003 0.101 0.016l5.906 2.646c0.048 0.021 0.089 0.056 0.116 0.101s0.039 0.097 0.035 0.149c-0.168 1.272-0.793 2.439-1.759 3.284s-2.206 1.308-3.489 1.305z"></path>
</symbol><symbol id="icon-modal-close" viewBox="0 0 32 32">
<path d="M4 22.32l6.347-6.32-6.347-6.32 5.68-5.68 6.32 6.347 6.32-6.347 5.68 5.68-6.347 6.32 6.347 6.32-5.68 5.68-6.32-6.347-6.32 6.347-5.68-5.68zM16 17.88l6.32 6.333 1.893-1.893-6.333-6.32 6.333-6.32-1.893-1.893-6.32 6.333-6.32-6.333-1.893 1.893 6.333 6.32-6.333 6.32 1.893 1.893 6.32-6.333z"></path>
</symbol>
</defs>
</svg>
